# xmcd CD database file
#
# Track frame offsets:
#	183
#	31358
#	48063
#	72333
#	97923
#	112908
#	147813
#	181845
#	197298
#	220058
#	257980
#	282700
#	322798
#
# Disc length: 4668 seconds
#
# Revision: 0
# Processed by: cddbd v1.5.1PL0 Copyright (c) Steve Scherf et al.
# Submitted via: CDex 1.51
#
DISCID=b0123a0d
DTITLE=Yngwie J. Malmsteen's Rising Force - As Above So Below
DYEAR=1985
DGENRE=Heavy Metal
TTITLE0=Intro/I'll See The Light, Tonight
TTITLE1=As Above, So Below
TTITLE2=Don't Let It End
TTITLE3=Far Beyond The Sun
TTITLE4=On The Run Again
TTITLE5=Anguish And Fear
TTITLE6=I'm A Viking
TTITLE7=Hiroshima Mon Amour
TTITLE8=Black Star
TTITLE9=Jet To Jet
TTITLE10=Kree Nakoory
TTITLE11=Guitar Solo
TTITLE12=Disciples Of Hell
EXTD=YEAR: 1985
EXTT0=
EXTT1=
EXTT2=
EXTT3=
EXTT4=
EXTT5=
EXTT6=
EXTT7=
EXTT8=
EXTT9=
EXTT10=
EXTT11=
EXTT12=
PLAYORDER=
